<mxfile host="app.diagrams.net" modified="2021-03-17T19:35:54.600Z" agent="5.0 (Windows NT 10.0; Win64; x64) AppleWebKit/537.36 (KHTML, like Gecko) Chrome/88.0.4324.192 Safari/537.36 OPR/74.0.3911.218" etag="ozlO8enm3-K99Y-eUSEn" version="14.4.7" type="github">
  <diagram id="C5RBs43oDa-KdzZeNtuy" name="Page-1">
    <mxGraphModel dx="998" dy="548" grid="1" gridSize="10" guides="1" tooltips="1" connect="1" arrows="1" fold="1" page="1" pageScale="1" pageWidth="827" pageHeight="1169" math="0" shadow="0">
      <root>
        <mxCell id="WIyWlLk6GJQsqaUBKTNV-0" />
        <mxCell id="WIyWlLk6GJQsqaUBKTNV-1" parent="WIyWlLk6GJQsqaUBKTNV-0" />
        <mxCell id="p8sUAyVJWzeTO4ztUlNU-18" style="edgeStyle=none;rounded=0;orthogonalLoop=1;jettySize=auto;html=1;exitX=0.5;exitY=0.5;exitDx=0;exitDy=0;exitPerimeter=0;entryX=0.977;entryY=0.32;entryDx=0;entryDy=0;entryPerimeter=0;" edge="1" parent="WIyWlLk6GJQsqaUBKTNV-1" source="p8sUAyVJWzeTO4ztUlNU-0" target="p8sUAyVJWzeTO4ztUlNU-5">
          <mxGeometry relative="1" as="geometry" />
        </mxCell>
        <mxCell id="p8sUAyVJWzeTO4ztUlNU-21" style="edgeStyle=none;rounded=0;orthogonalLoop=1;jettySize=auto;html=1;exitX=0.5;exitY=0.5;exitDx=0;exitDy=0;exitPerimeter=0;entryX=1.023;entryY=0.68;entryDx=0;entryDy=0;entryPerimeter=0;" edge="1" parent="WIyWlLk6GJQsqaUBKTNV-1" source="p8sUAyVJWzeTO4ztUlNU-0" target="p8sUAyVJWzeTO4ztUlNU-20">
          <mxGeometry relative="1" as="geometry" />
        </mxCell>
        <mxCell id="p8sUAyVJWzeTO4ztUlNU-64" style="edgeStyle=none;rounded=0;orthogonalLoop=1;jettySize=auto;html=1;exitX=0.5;exitY=0.5;exitDx=0;exitDy=0;exitPerimeter=0;entryX=1;entryY=0.5;entryDx=0;entryDy=0;" edge="1" parent="WIyWlLk6GJQsqaUBKTNV-1" source="p8sUAyVJWzeTO4ztUlNU-0" target="p8sUAyVJWzeTO4ztUlNU-63">
          <mxGeometry relative="1" as="geometry" />
        </mxCell>
        <mxCell id="p8sUAyVJWzeTO4ztUlNU-0" value="Admin" style="shape=umlActor;verticalLabelPosition=bottom;verticalAlign=top;html=1;outlineConnect=0;" vertex="1" parent="WIyWlLk6GJQsqaUBKTNV-1">
          <mxGeometry x="600" y="430" width="30" height="60" as="geometry" />
        </mxCell>
        <mxCell id="p8sUAyVJWzeTO4ztUlNU-16" style="edgeStyle=none;rounded=0;orthogonalLoop=1;jettySize=auto;html=1;exitX=0.5;exitY=0.5;exitDx=0;exitDy=0;exitPerimeter=0;" edge="1" parent="WIyWlLk6GJQsqaUBKTNV-1" source="p8sUAyVJWzeTO4ztUlNU-2" target="p8sUAyVJWzeTO4ztUlNU-5">
          <mxGeometry relative="1" as="geometry" />
        </mxCell>
        <mxCell id="p8sUAyVJWzeTO4ztUlNU-24" style="edgeStyle=none;rounded=0;orthogonalLoop=1;jettySize=auto;html=1;exitX=0.5;exitY=0.5;exitDx=0;exitDy=0;exitPerimeter=0;" edge="1" parent="WIyWlLk6GJQsqaUBKTNV-1" source="p8sUAyVJWzeTO4ztUlNU-2" target="p8sUAyVJWzeTO4ztUlNU-23">
          <mxGeometry relative="1" as="geometry" />
        </mxCell>
        <mxCell id="p8sUAyVJWzeTO4ztUlNU-34" style="edgeStyle=none;rounded=0;orthogonalLoop=1;jettySize=auto;html=1;exitX=0.5;exitY=0.5;exitDx=0;exitDy=0;exitPerimeter=0;entryX=0;entryY=0.5;entryDx=0;entryDy=0;" edge="1" parent="WIyWlLk6GJQsqaUBKTNV-1" source="p8sUAyVJWzeTO4ztUlNU-2" target="p8sUAyVJWzeTO4ztUlNU-27">
          <mxGeometry relative="1" as="geometry" />
        </mxCell>
        <mxCell id="p8sUAyVJWzeTO4ztUlNU-35" style="edgeStyle=none;rounded=0;orthogonalLoop=1;jettySize=auto;html=1;exitX=0.5;exitY=0.5;exitDx=0;exitDy=0;exitPerimeter=0;entryX=0;entryY=0.5;entryDx=0;entryDy=0;" edge="1" parent="WIyWlLk6GJQsqaUBKTNV-1" source="p8sUAyVJWzeTO4ztUlNU-2" target="p8sUAyVJWzeTO4ztUlNU-28">
          <mxGeometry relative="1" as="geometry" />
        </mxCell>
        <mxCell id="p8sUAyVJWzeTO4ztUlNU-36" style="edgeStyle=none;rounded=0;orthogonalLoop=1;jettySize=auto;html=1;exitX=0.5;exitY=0.5;exitDx=0;exitDy=0;exitPerimeter=0;entryX=0;entryY=0.5;entryDx=0;entryDy=0;" edge="1" parent="WIyWlLk6GJQsqaUBKTNV-1" source="p8sUAyVJWzeTO4ztUlNU-2" target="p8sUAyVJWzeTO4ztUlNU-30">
          <mxGeometry relative="1" as="geometry" />
        </mxCell>
        <mxCell id="p8sUAyVJWzeTO4ztUlNU-37" style="edgeStyle=none;rounded=0;orthogonalLoop=1;jettySize=auto;html=1;exitX=0.5;exitY=0.5;exitDx=0;exitDy=0;exitPerimeter=0;entryX=0;entryY=0.5;entryDx=0;entryDy=0;" edge="1" parent="WIyWlLk6GJQsqaUBKTNV-1" source="p8sUAyVJWzeTO4ztUlNU-2" target="p8sUAyVJWzeTO4ztUlNU-31">
          <mxGeometry relative="1" as="geometry" />
        </mxCell>
        <mxCell id="p8sUAyVJWzeTO4ztUlNU-38" style="edgeStyle=none;rounded=0;orthogonalLoop=1;jettySize=auto;html=1;exitX=0.5;exitY=0.5;exitDx=0;exitDy=0;exitPerimeter=0;entryX=0;entryY=0.5;entryDx=0;entryDy=0;" edge="1" parent="WIyWlLk6GJQsqaUBKTNV-1" source="p8sUAyVJWzeTO4ztUlNU-2" target="p8sUAyVJWzeTO4ztUlNU-33">
          <mxGeometry relative="1" as="geometry" />
        </mxCell>
        <mxCell id="p8sUAyVJWzeTO4ztUlNU-39" style="edgeStyle=none;rounded=0;orthogonalLoop=1;jettySize=auto;html=1;exitX=0.5;exitY=0.5;exitDx=0;exitDy=0;exitPerimeter=0;entryX=0;entryY=0.5;entryDx=0;entryDy=0;" edge="1" parent="WIyWlLk6GJQsqaUBKTNV-1" source="p8sUAyVJWzeTO4ztUlNU-2" target="p8sUAyVJWzeTO4ztUlNU-32">
          <mxGeometry relative="1" as="geometry" />
        </mxCell>
        <mxCell id="p8sUAyVJWzeTO4ztUlNU-40" style="edgeStyle=none;rounded=0;orthogonalLoop=1;jettySize=auto;html=1;exitX=0.5;exitY=0.5;exitDx=0;exitDy=0;exitPerimeter=0;entryX=0;entryY=0.5;entryDx=0;entryDy=0;" edge="1" parent="WIyWlLk6GJQsqaUBKTNV-1" source="p8sUAyVJWzeTO4ztUlNU-2" target="p8sUAyVJWzeTO4ztUlNU-29">
          <mxGeometry relative="1" as="geometry" />
        </mxCell>
        <mxCell id="p8sUAyVJWzeTO4ztUlNU-2" value="Candidate" style="shape=umlActor;verticalLabelPosition=bottom;verticalAlign=top;html=1;outlineConnect=0;" vertex="1" parent="WIyWlLk6GJQsqaUBKTNV-1">
          <mxGeometry x="130" y="650" width="30" height="60" as="geometry" />
        </mxCell>
        <mxCell id="p8sUAyVJWzeTO4ztUlNU-17" style="edgeStyle=none;rounded=0;orthogonalLoop=1;jettySize=auto;html=1;exitX=0.5;exitY=0.5;exitDx=0;exitDy=0;exitPerimeter=0;entryX=0;entryY=1;entryDx=0;entryDy=0;" edge="1" parent="WIyWlLk6GJQsqaUBKTNV-1" source="p8sUAyVJWzeTO4ztUlNU-3" target="p8sUAyVJWzeTO4ztUlNU-5">
          <mxGeometry relative="1" as="geometry" />
        </mxCell>
        <mxCell id="p8sUAyVJWzeTO4ztUlNU-25" style="edgeStyle=none;rounded=0;orthogonalLoop=1;jettySize=auto;html=1;exitX=0.5;exitY=0.5;exitDx=0;exitDy=0;exitPerimeter=0;entryX=-0.017;entryY=0.365;entryDx=0;entryDy=0;entryPerimeter=0;" edge="1" parent="WIyWlLk6GJQsqaUBKTNV-1" source="p8sUAyVJWzeTO4ztUlNU-3" target="p8sUAyVJWzeTO4ztUlNU-23">
          <mxGeometry relative="1" as="geometry" />
        </mxCell>
        <mxCell id="p8sUAyVJWzeTO4ztUlNU-59" style="edgeStyle=none;rounded=0;orthogonalLoop=1;jettySize=auto;html=1;exitX=0.5;exitY=0.5;exitDx=0;exitDy=0;exitPerimeter=0;entryX=0;entryY=0.5;entryDx=0;entryDy=0;" edge="1" parent="WIyWlLk6GJQsqaUBKTNV-1" source="p8sUAyVJWzeTO4ztUlNU-3" target="p8sUAyVJWzeTO4ztUlNU-55">
          <mxGeometry relative="1" as="geometry" />
        </mxCell>
        <mxCell id="p8sUAyVJWzeTO4ztUlNU-60" style="edgeStyle=none;rounded=0;orthogonalLoop=1;jettySize=auto;html=1;exitX=0.5;exitY=0.5;exitDx=0;exitDy=0;exitPerimeter=0;entryX=0;entryY=0.5;entryDx=0;entryDy=0;" edge="1" parent="WIyWlLk6GJQsqaUBKTNV-1" source="p8sUAyVJWzeTO4ztUlNU-3" target="p8sUAyVJWzeTO4ztUlNU-56">
          <mxGeometry relative="1" as="geometry" />
        </mxCell>
        <mxCell id="p8sUAyVJWzeTO4ztUlNU-61" style="edgeStyle=none;rounded=0;orthogonalLoop=1;jettySize=auto;html=1;exitX=0.5;exitY=0.5;exitDx=0;exitDy=0;exitPerimeter=0;entryX=0;entryY=0.5;entryDx=0;entryDy=0;" edge="1" parent="WIyWlLk6GJQsqaUBKTNV-1" source="p8sUAyVJWzeTO4ztUlNU-3" target="p8sUAyVJWzeTO4ztUlNU-57">
          <mxGeometry relative="1" as="geometry" />
        </mxCell>
        <mxCell id="p8sUAyVJWzeTO4ztUlNU-62" style="edgeStyle=none;rounded=0;orthogonalLoop=1;jettySize=auto;html=1;exitX=0.5;exitY=0.5;exitDx=0;exitDy=0;exitPerimeter=0;entryX=0;entryY=0.5;entryDx=0;entryDy=0;" edge="1" parent="WIyWlLk6GJQsqaUBKTNV-1" source="p8sUAyVJWzeTO4ztUlNU-3" target="p8sUAyVJWzeTO4ztUlNU-58">
          <mxGeometry relative="1" as="geometry" />
        </mxCell>
        <mxCell id="p8sUAyVJWzeTO4ztUlNU-3" value="Applicant&lt;br&gt;&amp;nbsp;company" style="shape=umlActor;verticalLabelPosition=bottom;verticalAlign=top;html=1;outlineConnect=0;" vertex="1" parent="WIyWlLk6GJQsqaUBKTNV-1">
          <mxGeometry x="150" y="430" width="30" height="60" as="geometry" />
        </mxCell>
        <mxCell id="p8sUAyVJWzeTO4ztUlNU-19" style="edgeStyle=none;rounded=0;orthogonalLoop=1;jettySize=auto;html=1;exitX=0.5;exitY=0.5;exitDx=0;exitDy=0;exitPerimeter=0;" edge="1" parent="WIyWlLk6GJQsqaUBKTNV-1" target="p8sUAyVJWzeTO4ztUlNU-5">
          <mxGeometry relative="1" as="geometry">
            <mxPoint x="735" y="670" as="sourcePoint" />
          </mxGeometry>
        </mxCell>
        <mxCell id="p8sUAyVJWzeTO4ztUlNU-48" style="edgeStyle=none;rounded=0;orthogonalLoop=1;jettySize=auto;html=1;exitX=0.5;exitY=0.5;exitDx=0;exitDy=0;exitPerimeter=0;entryX=1;entryY=0.5;entryDx=0;entryDy=0;" edge="1" parent="WIyWlLk6GJQsqaUBKTNV-1" target="p8sUAyVJWzeTO4ztUlNU-41">
          <mxGeometry relative="1" as="geometry">
            <mxPoint x="735" y="670" as="sourcePoint" />
          </mxGeometry>
        </mxCell>
        <mxCell id="p8sUAyVJWzeTO4ztUlNU-49" style="edgeStyle=none;rounded=0;orthogonalLoop=1;jettySize=auto;html=1;exitX=0.5;exitY=0.5;exitDx=0;exitDy=0;exitPerimeter=0;entryX=1;entryY=0.5;entryDx=0;entryDy=0;" edge="1" parent="WIyWlLk6GJQsqaUBKTNV-1" target="p8sUAyVJWzeTO4ztUlNU-42">
          <mxGeometry relative="1" as="geometry">
            <mxPoint x="735" y="670" as="sourcePoint" />
          </mxGeometry>
        </mxCell>
        <mxCell id="p8sUAyVJWzeTO4ztUlNU-50" style="edgeStyle=none;rounded=0;orthogonalLoop=1;jettySize=auto;html=1;exitX=0.5;exitY=0.5;exitDx=0;exitDy=0;exitPerimeter=0;entryX=1;entryY=0.5;entryDx=0;entryDy=0;" edge="1" parent="WIyWlLk6GJQsqaUBKTNV-1" target="p8sUAyVJWzeTO4ztUlNU-43">
          <mxGeometry relative="1" as="geometry">
            <mxPoint x="735" y="670" as="sourcePoint" />
          </mxGeometry>
        </mxCell>
        <mxCell id="p8sUAyVJWzeTO4ztUlNU-51" style="edgeStyle=none;rounded=0;orthogonalLoop=1;jettySize=auto;html=1;exitX=0.5;exitY=0.5;exitDx=0;exitDy=0;exitPerimeter=0;entryX=1;entryY=0.5;entryDx=0;entryDy=0;" edge="1" parent="WIyWlLk6GJQsqaUBKTNV-1" target="p8sUAyVJWzeTO4ztUlNU-44">
          <mxGeometry relative="1" as="geometry">
            <mxPoint x="735" y="670" as="sourcePoint" />
          </mxGeometry>
        </mxCell>
        <mxCell id="p8sUAyVJWzeTO4ztUlNU-52" style="edgeStyle=none;rounded=0;orthogonalLoop=1;jettySize=auto;html=1;exitX=0.5;exitY=0.5;exitDx=0;exitDy=0;exitPerimeter=0;entryX=1;entryY=0.5;entryDx=0;entryDy=0;" edge="1" parent="WIyWlLk6GJQsqaUBKTNV-1" source="p8sUAyVJWzeTO4ztUlNU-4" target="p8sUAyVJWzeTO4ztUlNU-45">
          <mxGeometry relative="1" as="geometry">
            <mxPoint x="735" y="670" as="sourcePoint" />
          </mxGeometry>
        </mxCell>
        <mxCell id="p8sUAyVJWzeTO4ztUlNU-5" value="Login" style="ellipse;whiteSpace=wrap;html=1;" vertex="1" parent="WIyWlLk6GJQsqaUBKTNV-1">
          <mxGeometry x="330" y="470" width="120" height="80" as="geometry" />
        </mxCell>
        <mxCell id="p8sUAyVJWzeTO4ztUlNU-20" value="See statics" style="ellipse;whiteSpace=wrap;html=1;" vertex="1" parent="WIyWlLk6GJQsqaUBKTNV-1">
          <mxGeometry x="410" y="350" width="120" height="80" as="geometry" />
        </mxCell>
        <mxCell id="p8sUAyVJWzeTO4ztUlNU-23" value="Sign up" style="ellipse;whiteSpace=wrap;html=1;" vertex="1" parent="WIyWlLk6GJQsqaUBKTNV-1">
          <mxGeometry x="280" y="660" width="120" height="80" as="geometry" />
        </mxCell>
        <mxCell id="p8sUAyVJWzeTO4ztUlNU-27" value="Candidate can sign up to the system" style="ellipse;whiteSpace=wrap;html=1;" vertex="1" parent="WIyWlLk6GJQsqaUBKTNV-1">
          <mxGeometry x="280" y="760" width="120" height="80" as="geometry" />
        </mxCell>
        <mxCell id="p8sUAyVJWzeTO4ztUlNU-28" value="Candidate can evaluate the offer.&amp;nbsp;" style="ellipse;whiteSpace=wrap;html=1;" vertex="1" parent="WIyWlLk6GJQsqaUBKTNV-1">
          <mxGeometry x="280" y="855" width="120" height="80" as="geometry" />
        </mxCell>
        <mxCell id="p8sUAyVJWzeTO4ztUlNU-29" value="Candidate have to give information&amp;nbsp;" style="ellipse;whiteSpace=wrap;html=1;" vertex="1" parent="WIyWlLk6GJQsqaUBKTNV-1">
          <mxGeometry x="280" y="1310" width="120" height="80" as="geometry" />
        </mxCell>
        <mxCell id="p8sUAyVJWzeTO4ztUlNU-30" value="See ratings" style="ellipse;whiteSpace=wrap;html=1;" vertex="1" parent="WIyWlLk6GJQsqaUBKTNV-1">
          <mxGeometry x="280" y="950" width="120" height="80" as="geometry" />
        </mxCell>
        <mxCell id="p8sUAyVJWzeTO4ztUlNU-31" value="Apply to advertisement" style="ellipse;whiteSpace=wrap;html=1;" vertex="1" parent="WIyWlLk6GJQsqaUBKTNV-1">
          <mxGeometry x="280" y="1040" width="120" height="80" as="geometry" />
        </mxCell>
        <mxCell id="p8sUAyVJWzeTO4ztUlNU-32" value="Set Status to &lt;br&gt;Open&lt;br&gt;&amp;nbsp;To Work ." style="ellipse;whiteSpace=wrap;html=1;" vertex="1" parent="WIyWlLk6GJQsqaUBKTNV-1">
          <mxGeometry x="280" y="1220" width="120" height="80" as="geometry" />
        </mxCell>
        <mxCell id="p8sUAyVJWzeTO4ztUlNU-33" value="Rating the offer" style="ellipse;whiteSpace=wrap;html=1;" vertex="1" parent="WIyWlLk6GJQsqaUBKTNV-1">
          <mxGeometry x="280" y="1130" width="120" height="80" as="geometry" />
        </mxCell>
        <mxCell id="p8sUAyVJWzeTO4ztUlNU-41" value="See company requests" style="ellipse;whiteSpace=wrap;html=1;" vertex="1" parent="WIyWlLk6GJQsqaUBKTNV-1">
          <mxGeometry x="420" y="660" width="120" height="80" as="geometry" />
        </mxCell>
        <mxCell id="p8sUAyVJWzeTO4ztUlNU-42" value="Give offer to candidate" style="ellipse;whiteSpace=wrap;html=1;" vertex="1" parent="WIyWlLk6GJQsqaUBKTNV-1">
          <mxGeometry x="420" y="760" width="120" height="80" as="geometry" />
        </mxCell>
        <mxCell id="p8sUAyVJWzeTO4ztUlNU-43" value="Suggest candidate to company" style="ellipse;whiteSpace=wrap;html=1;" vertex="1" parent="WIyWlLk6GJQsqaUBKTNV-1">
          <mxGeometry x="420" y="855" width="120" height="80" as="geometry" />
        </mxCell>
        <mxCell id="p8sUAyVJWzeTO4ztUlNU-44" value="Delete candidate" style="ellipse;whiteSpace=wrap;html=1;" vertex="1" parent="WIyWlLk6GJQsqaUBKTNV-1">
          <mxGeometry x="420" y="960" width="120" height="80" as="geometry" />
        </mxCell>
        <mxCell id="p8sUAyVJWzeTO4ztUlNU-45" value="Arrange meeting&amp;nbsp; between candidate and company" style="ellipse;whiteSpace=wrap;html=1;" vertex="1" parent="WIyWlLk6GJQsqaUBKTNV-1">
          <mxGeometry x="420" y="1050" width="120" height="80" as="geometry" />
        </mxCell>
        <mxCell id="p8sUAyVJWzeTO4ztUlNU-4" value="Human Sources" style="shape=umlActor;verticalLabelPosition=bottom;verticalAlign=top;html=1;outlineConnect=0;" vertex="1" parent="WIyWlLk6GJQsqaUBKTNV-1">
          <mxGeometry x="720" y="640" width="30" height="60" as="geometry" />
        </mxCell>
        <mxCell id="p8sUAyVJWzeTO4ztUlNU-54" style="edgeStyle=none;rounded=0;orthogonalLoop=1;jettySize=auto;html=1;exitX=0.5;exitY=0.5;exitDx=0;exitDy=0;exitPerimeter=0;entryX=1;entryY=0.5;entryDx=0;entryDy=0;" edge="1" parent="WIyWlLk6GJQsqaUBKTNV-1" target="p8sUAyVJWzeTO4ztUlNU-4">
          <mxGeometry relative="1" as="geometry">
            <mxPoint x="735" y="670" as="sourcePoint" />
            <mxPoint x="540" y="1090" as="targetPoint" />
          </mxGeometry>
        </mxCell>
        <mxCell id="p8sUAyVJWzeTO4ztUlNU-55" value="See suggested candidates" style="ellipse;whiteSpace=wrap;html=1;" vertex="1" parent="WIyWlLk6GJQsqaUBKTNV-1">
          <mxGeometry x="270" y="350" width="120" height="80" as="geometry" />
        </mxCell>
        <mxCell id="p8sUAyVJWzeTO4ztUlNU-56" value="Accept / Decline suggested candidates" style="ellipse;whiteSpace=wrap;html=1;" vertex="1" parent="WIyWlLk6GJQsqaUBKTNV-1">
          <mxGeometry x="270" y="260" width="120" height="80" as="geometry" />
        </mxCell>
        <mxCell id="p8sUAyVJWzeTO4ztUlNU-57" value="Advertise" style="ellipse;whiteSpace=wrap;html=1;" vertex="1" parent="WIyWlLk6GJQsqaUBKTNV-1">
          <mxGeometry x="270" y="170" width="120" height="80" as="geometry" />
        </mxCell>
        <mxCell id="p8sUAyVJWzeTO4ztUlNU-58" value="Rate employee" style="ellipse;whiteSpace=wrap;html=1;" vertex="1" parent="WIyWlLk6GJQsqaUBKTNV-1">
          <mxGeometry x="270" y="80" width="120" height="80" as="geometry" />
        </mxCell>
        <mxCell id="p8sUAyVJWzeTO4ztUlNU-63" value="&lt;span&gt;Add / Remove &lt;br&gt;Human Sources&lt;/span&gt;" style="ellipse;whiteSpace=wrap;html=1;" vertex="1" parent="WIyWlLk6GJQsqaUBKTNV-1">
          <mxGeometry x="414" y="260" width="120" height="80" as="geometry" />
        </mxCell>
      </root>
    </mxGraphModel>
  </diagram>
</mxfile>
